<?xml version="1.0" encoding="UTF-8"?>

<svg width="700pt" height="700pt" version="1.1" viewBox="0 0 700 700" xmlns="http://www.w3.org/2000/svg" xmlns:xlink="http://www.w3.org/1999/xlink">
  <g>
  <path d="m241.46 95.543c27.469 0 55.055 9.5195 77.414 28.93l31.125 27.008 31.113-27.008c22.379-19.41 49.957-28.926 77.426-28.926 33.059 0 65.934 13.789 89.297 40.711 42.785 49.285 37.496 123.93-11.793 166.72l-5.7578 5.0078-180.29 156.47-180.29-156.48-5.7578-5.0078c-49.297-42.785-54.562-117.43-11.781-166.72 23.375-26.922 56.234-40.711 89.293-40.703m0-26.266c-41.906-0.003906-81.68 18.129-109.12 49.762-25.301 29.137-37.727 66.371-35.012 104.86 2.7227 38.488 20.262 73.613 49.398 98.895l5.7695 5.0117 180.3 156.48c4.9297 4.2891 11.082 6.4297 17.207 6.4297s12.285-2.1445 17.207-6.4297l180.29-156.49 5.7461-4.9961c29.148-25.301 46.703-60.418 49.422-98.906 2.7148-38.488-9.7227-75.723-35.012-104.87-27.441-31.617-67.219-49.758-109.12-49.758-34.754 0-68.348 12.555-94.633 35.348l-13.902 12.09-13.898-12.066c-26.277-22.805-59.887-35.367-94.641-35.367z"/>
   </g>
</svg>

