<?xml version="1.0" encoding="UTF-8"?>
<svg width="700pt" height="700pt" version="1.1" viewBox="0 0 700 700" xmlns="http://www.w3.org/2000/svg">
 <path d="m556.38 64.051-406.09 189.96c-9.8711 4.6211-16.102 14.258-16.238 25.152-0.14062 10.898 5.832 20.695 15.562 25.574l117.11 58.543 58.543 117.09c4.8086 9.6133 14.465 15.562 25.199 15.562 11.059 0 20.836-6.2305 25.527-16.238l189.96-406.09-5.625-3.9414zm-400.33 227.82c-4.8516-2.4258-7.6992-7.1172-7.6289-12.531 0.070313-5.4141 3.0352-10.035 7.957-12.32l369.06-172.62-254.78 254.78zm206.92 181.75c-2.332 4.9688-7 7.957-12.508 7.957-5.3438 0-9.9414-2.8477-12.344-7.6289l-57.305-114.62 254.78-254.77z"/>
</svg>
